<svg width="40" height="40" viewBox="0 0 40 40" fill="none" xmlns="http://www.w3.org/2000/svg">
<rect width="40" height="40" rx="8" fill="url(#paint0_linear_3_5)"/>
<path d="M15.99 17.716C15.702 17.188 15.306 16.786 14.802 16.51C14.298 16.234 13.71 16.096 13.038 16.096C12.294 16.096 11.634 16.264 11.058 16.6C10.482 16.936 10.032 17.416 9.708 18.04C9.384 18.664 9.222 19.384 9.222 20.2C9.222 21.04 9.384 21.772 9.708 22.396C10.044 23.02 10.506 23.5 11.094 23.836C11.682 24.172 12.366 24.34 13.146 24.34C14.106 24.34 14.892 24.088 15.504 23.584C16.116 23.068 16.518 22.354 16.71 21.442H12.39V19.516H19.194V21.712C19.026 22.588 18.666 23.398 18.114 24.142C17.562 24.886 16.848 25.486 15.972 25.942C15.108 26.386 14.136 26.608 13.056 26.608C11.844 26.608 10.746 26.338 9.762 25.798C8.79 25.246 8.022 24.484 7.458 23.512C6.906 22.54 6.63 21.436 6.63 20.2C6.63 18.964 6.906 17.86 7.458 16.888C8.022 15.904 8.79 15.142 9.762 14.602C10.746 14.05 11.838 13.774 13.038 13.774C14.454 13.774 15.684 14.122 16.728 14.818C17.772 15.502 18.492 16.468 18.888 17.716H15.99ZM29.8064 17.716C29.5184 17.188 29.1224 16.786 28.6184 16.51C28.1144 16.234 27.5264 16.096 26.8544 16.096C26.1104 16.096 25.4504 16.264 24.8744 16.6C24.2984 16.936 23.8484 17.416 23.5244 18.04C23.2004 18.664 23.0384 19.384 23.0384 20.2C23.0384 21.04 23.2004 21.772 23.5244 22.396C23.8604 23.02 24.3224 23.5 24.9104 23.836C25.4984 24.172 26.1824 24.34 26.9624 24.34C27.9224 24.34 28.7084 24.088 29.3204 23.584C29.9324 23.068 30.3344 22.354 30.5264 21.442H26.2064V19.516H33.0104V21.712C32.8424 22.588 32.4824 23.398 31.9304 24.142C31.3784 24.886 30.6644 25.486 29.7884 25.942C28.9244 26.386 27.9524 26.608 26.8724 26.608C25.6604 26.608 24.5624 26.338 23.5784 25.798C22.6064 25.246 21.8384 24.484 21.2744 23.512C20.7224 22.54 20.4464 21.436 20.4464 20.2C20.4464 18.964 20.7224 17.86 21.2744 16.888C21.8384 15.904 22.6064 15.142 23.5784 14.602C24.5624 14.05 25.6544 13.774 26.8544 13.774C28.2704 13.774 29.5004 14.122 30.5444 14.818C31.5884 15.502 32.3084 16.468 32.7044 17.716H29.8064Z" fill="#E2E8F0"/>
<defs>
<linearGradient id="paint0_linear_3_5" x1="20" y1="0" x2="20" y2="40" gradientUnits="userSpaceOnUse">
<stop stop-color="#3B82F6"/>
<stop offset="1" stop-color="#2563EB"/>
</linearGradient>
</defs>
</svg>
